<svg xmlns="http://www.w3.org/2000/svg" viewBox="0 0 32 32" id="FootballCoach">
  <g fill="#000000" class="color101820 svgShape">
    <path d="M11 11a1 1 0 0 0 1-1v1a5 5 0 0 0 5 5h2a5 5 0 0 0 5-5v-1a1 1 0 0 0 2 0 4.14 4.14 0 0 0-2-3.34V5a3 3 0 0 0-3-3h-6a3 3 0 0 0-3 3v1.66A4.14 4.14 0 0 0 10 10a1 1 0 0 0 1 1zm8 3h-2a3 3 0 0 1-3-3V7.83A9.6 9.6 0 0 1 18 7a9.6 9.6 0 0 1 4 .83V11a3 3 0 0 1-3 3zm-6 1H3a1 1 0 0 0-1 1v13a1 1 0 0 0 1 1h10a1 1 0 0 0 1-1V16a1 1 0 0 0-1-1zm-1 13H4V17h1v2a1 1 0 0 0 1 1h4a1 1 0 0 0 1-1v-2h1zM6 14h4a1 1 0 0 0 0-2H6a1 1 0 0 0 0 2z" fill="#ffffff" class="color000000 svgShape"></path>
    <circle cx="18" cy="25" r="1" fill="#ffffff" class="color000000 svgShape"></circle>
    <path d="M16 17a1 1 0 0 0-.74.35L18 20.46 20.86 17zm12.58 4.11A5 5 0 0 0 23.66 17h-.19l-4.35 5.22A3 3 0 1 1 15 25v4a1 1 0 0 0 1 1h13a1 1 0 0 0 1-1.18zm-11.71 1.12L15 20.09V25a3 3 0 0 1 1.87-2.77z" fill="#ffffff" class="color000000 svgShape"></path>
  </g>
</svg>
